<mxfile host="app.diagrams.net" modified="2023-11-08T03:30:45.615Z" agent="Mozilla/5.0 (Windows NT 10.0; Win64; x64) AppleWebKit/537.36 (KHTML, like Gecko) Chrome/119.0.0.0 Safari/537.36" etag="j2iw9LBxT4rO3JfQswvI" version="22.0.8" type="google">
  <diagram name="Page-1" id="CtAqu_Ewa9IOqDz0TUkq">
    <mxGraphModel grid="1" page="1" gridSize="10" guides="1" tooltips="1" connect="1" arrows="1" fold="1" pageScale="1" pageWidth="827" pageHeight="1169" math="0" shadow="0">
      <root>
        <mxCell id="0" />
        <mxCell id="1" parent="0" />
        <mxCell id="b1p56JkDS0H2IpYGcqzU-3" style="edgeStyle=orthogonalEdgeStyle;rounded=0;orthogonalLoop=1;jettySize=auto;html=1;exitX=1;exitY=0.5;exitDx=0;exitDy=0;entryX=0;entryY=0.5;entryDx=0;entryDy=0;endArrow=none;endFill=0;" edge="1" parent="1" source="b1p56JkDS0H2IpYGcqzU-1" target="b1p56JkDS0H2IpYGcqzU-2">
          <mxGeometry relative="1" as="geometry" />
        </mxCell>
        <mxCell id="b1p56JkDS0H2IpYGcqzU-4" value="1" style="edgeLabel;html=1;align=center;verticalAlign=middle;resizable=0;points=[];" vertex="1" connectable="0" parent="b1p56JkDS0H2IpYGcqzU-3">
          <mxGeometry x="-0.0638" relative="1" as="geometry">
            <mxPoint as="offset" />
          </mxGeometry>
        </mxCell>
        <mxCell id="b1p56JkDS0H2IpYGcqzU-1" value="ResortManagementSystem" style="rounded=1;arcSize=10;whiteSpace=wrap;html=1;align=center;" vertex="1" parent="1">
          <mxGeometry x="50" y="480" width="150" height="40" as="geometry" />
        </mxCell>
        <mxCell id="b1p56JkDS0H2IpYGcqzU-6" style="edgeStyle=orthogonalEdgeStyle;rounded=0;orthogonalLoop=1;jettySize=auto;html=1;exitX=1;exitY=0.5;exitDx=0;exitDy=0;entryX=0;entryY=0.5;entryDx=0;entryDy=0;endArrow=none;endFill=0;" edge="1" parent="1" source="b1p56JkDS0H2IpYGcqzU-2" target="b1p56JkDS0H2IpYGcqzU-5">
          <mxGeometry relative="1" as="geometry" />
        </mxCell>
        <mxCell id="b1p56JkDS0H2IpYGcqzU-7" value="1..N" style="edgeLabel;html=1;align=center;verticalAlign=middle;resizable=0;points=[];" vertex="1" connectable="0" parent="b1p56JkDS0H2IpYGcqzU-6">
          <mxGeometry y="3" relative="1" as="geometry">
            <mxPoint as="offset" />
          </mxGeometry>
        </mxCell>
        <mxCell id="b1p56JkDS0H2IpYGcqzU-2" value="Manage" style="shape=rhombus;perimeter=rhombusPerimeter;whiteSpace=wrap;html=1;align=center;" vertex="1" parent="1">
          <mxGeometry x="240" y="470" width="120" height="60" as="geometry" />
        </mxCell>
        <mxCell id="b1p56JkDS0H2IpYGcqzU-100" style="edgeStyle=orthogonalEdgeStyle;rounded=0;orthogonalLoop=1;jettySize=auto;html=1;exitX=0.75;exitY=0;exitDx=0;exitDy=0;entryX=0;entryY=0.5;entryDx=0;entryDy=0;endArrow=none;endFill=0;" edge="1" parent="1" source="b1p56JkDS0H2IpYGcqzU-5" target="b1p56JkDS0H2IpYGcqzU-67">
          <mxGeometry relative="1" as="geometry" />
        </mxCell>
        <mxCell id="b1p56JkDS0H2IpYGcqzU-101" value="1..N" style="edgeLabel;html=1;align=center;verticalAlign=middle;resizable=0;points=[];" vertex="1" connectable="0" parent="b1p56JkDS0H2IpYGcqzU-100">
          <mxGeometry x="-0.7462" y="-1" relative="1" as="geometry">
            <mxPoint y="18" as="offset" />
          </mxGeometry>
        </mxCell>
        <mxCell id="b1p56JkDS0H2IpYGcqzU-5" value="Resort" style="rounded=1;arcSize=10;whiteSpace=wrap;html=1;align=center;" vertex="1" parent="1">
          <mxGeometry x="400" y="480" width="80" height="40" as="geometry" />
        </mxCell>
        <mxCell id="b1p56JkDS0H2IpYGcqzU-14" value="1..N" style="edgeStyle=orthogonalEdgeStyle;rounded=0;orthogonalLoop=1;jettySize=auto;html=1;exitX=0;exitY=0.5;exitDx=0;exitDy=0;entryX=0.75;entryY=0;entryDx=0;entryDy=0;endArrow=none;endFill=0;" edge="1" parent="1" source="b1p56JkDS0H2IpYGcqzU-8" target="b1p56JkDS0H2IpYGcqzU-5">
          <mxGeometry x="0.7949" relative="1" as="geometry">
            <Array as="points">
              <mxPoint x="430" y="140" />
              <mxPoint x="430" y="480" />
            </Array>
            <mxPoint as="offset" />
          </mxGeometry>
        </mxCell>
        <mxCell id="b1p56JkDS0H2IpYGcqzU-66" style="edgeStyle=orthogonalEdgeStyle;rounded=0;orthogonalLoop=1;jettySize=auto;html=1;exitX=1;exitY=0.5;exitDx=0;exitDy=0;entryX=0;entryY=0.5;entryDx=0;entryDy=0;endArrow=none;endFill=0;" edge="1" parent="1" source="b1p56JkDS0H2IpYGcqzU-8" target="b1p56JkDS0H2IpYGcqzU-46">
          <mxGeometry relative="1" as="geometry" />
        </mxCell>
        <mxCell id="b1p56JkDS0H2IpYGcqzU-8" value="Service" style="shape=rhombus;perimeter=rhombusPerimeter;whiteSpace=wrap;html=1;align=center;" vertex="1" parent="1">
          <mxGeometry x="520" y="110" width="120" height="60" as="geometry" />
        </mxCell>
        <mxCell id="b1p56JkDS0H2IpYGcqzU-12" style="edgeStyle=orthogonalEdgeStyle;rounded=0;orthogonalLoop=1;jettySize=auto;html=1;exitX=0;exitY=0.5;exitDx=0;exitDy=0;entryX=1;entryY=0.5;entryDx=0;entryDy=0;endArrow=none;endFill=0;" edge="1" parent="1" source="b1p56JkDS0H2IpYGcqzU-10" target="b1p56JkDS0H2IpYGcqzU-5">
          <mxGeometry relative="1" as="geometry" />
        </mxCell>
        <mxCell id="b1p56JkDS0H2IpYGcqzU-27" value="1..N" style="edgeLabel;html=1;align=center;verticalAlign=middle;resizable=0;points=[];" vertex="1" connectable="0" parent="b1p56JkDS0H2IpYGcqzU-12">
          <mxGeometry x="-0.1143" y="-2" relative="1" as="geometry">
            <mxPoint x="-12" y="2" as="offset" />
          </mxGeometry>
        </mxCell>
        <mxCell id="b1p56JkDS0H2IpYGcqzU-72" style="edgeStyle=orthogonalEdgeStyle;rounded=0;orthogonalLoop=1;jettySize=auto;html=1;exitX=1;exitY=0.5;exitDx=0;exitDy=0;entryX=0;entryY=0.5;entryDx=0;entryDy=0;endArrow=none;endFill=0;" edge="1" parent="1" source="b1p56JkDS0H2IpYGcqzU-10" target="b1p56JkDS0H2IpYGcqzU-51">
          <mxGeometry relative="1" as="geometry" />
        </mxCell>
        <mxCell id="b1p56JkDS0H2IpYGcqzU-10" value="Contains" style="shape=rhombus;perimeter=rhombusPerimeter;whiteSpace=wrap;html=1;align=center;" vertex="1" parent="1">
          <mxGeometry x="520" y="470" width="120" height="60" as="geometry" />
        </mxCell>
        <mxCell id="b1p56JkDS0H2IpYGcqzU-15" style="edgeStyle=orthogonalEdgeStyle;rounded=0;orthogonalLoop=1;jettySize=auto;html=1;exitX=0;exitY=0.5;exitDx=0;exitDy=0;entryX=0.75;entryY=1;entryDx=0;entryDy=0;endArrow=none;endFill=0;" edge="1" parent="1" source="b1p56JkDS0H2IpYGcqzU-11" target="b1p56JkDS0H2IpYGcqzU-5">
          <mxGeometry relative="1" as="geometry" />
        </mxCell>
        <mxCell id="b1p56JkDS0H2IpYGcqzU-25" value="1..N" style="edgeLabel;html=1;align=center;verticalAlign=middle;resizable=0;points=[];" vertex="1" connectable="0" parent="b1p56JkDS0H2IpYGcqzU-15">
          <mxGeometry x="0.3815" y="-2" relative="1" as="geometry">
            <mxPoint x="-2" y="-58" as="offset" />
          </mxGeometry>
        </mxCell>
        <mxCell id="b1p56JkDS0H2IpYGcqzU-63" style="edgeStyle=orthogonalEdgeStyle;rounded=0;orthogonalLoop=1;jettySize=auto;html=1;exitX=1;exitY=0.5;exitDx=0;exitDy=0;entryX=0;entryY=0.5;entryDx=0;entryDy=0;endArrow=none;endFill=0;" edge="1" parent="1" source="b1p56JkDS0H2IpYGcqzU-11" target="b1p56JkDS0H2IpYGcqzU-38">
          <mxGeometry relative="1" as="geometry" />
        </mxCell>
        <mxCell id="b1p56JkDS0H2IpYGcqzU-11" value="Composits" style="shape=rhombus;perimeter=rhombusPerimeter;whiteSpace=wrap;html=1;align=center;" vertex="1" parent="1">
          <mxGeometry x="520" y="650" width="120" height="60" as="geometry" />
        </mxCell>
        <mxCell id="b1p56JkDS0H2IpYGcqzU-16" value="User" style="rounded=1;arcSize=10;whiteSpace=wrap;html=1;align=center;" vertex="1" parent="1">
          <mxGeometry x="520" y="30" width="80" height="40" as="geometry" />
        </mxCell>
        <mxCell id="b1p56JkDS0H2IpYGcqzU-18" value="Reservation" style="rounded=1;arcSize=10;whiteSpace=wrap;html=1;align=center;" vertex="1" parent="1">
          <mxGeometry x="520" y="400" width="80" height="40" as="geometry" />
        </mxCell>
        <mxCell id="b1p56JkDS0H2IpYGcqzU-33" style="edgeStyle=orthogonalEdgeStyle;rounded=0;orthogonalLoop=1;jettySize=auto;html=1;exitX=1;exitY=0.5;exitDx=0;exitDy=0;entryX=0.22;entryY=0.5;entryDx=0;entryDy=0;endArrow=none;endFill=0;entryPerimeter=0;" edge="1" parent="1" source="b1p56JkDS0H2IpYGcqzU-19" target="b1p56JkDS0H2IpYGcqzU-37">
          <mxGeometry relative="1" as="geometry">
            <mxPoint x="670" y="600" as="targetPoint" />
          </mxGeometry>
        </mxCell>
        <mxCell id="b1p56JkDS0H2IpYGcqzU-19" value="Facility" style="rounded=1;arcSize=10;whiteSpace=wrap;html=1;align=center;" vertex="1" parent="1">
          <mxGeometry x="520" y="580" width="80" height="40" as="geometry" />
        </mxCell>
        <mxCell id="b1p56JkDS0H2IpYGcqzU-23" value="" style="endArrow=classic;html=1;rounded=0;" edge="1" parent="1">
          <mxGeometry width="50" height="50" relative="1" as="geometry">
            <mxPoint x="240" y="540" as="sourcePoint" />
            <mxPoint x="360" y="540" as="targetPoint" />
          </mxGeometry>
        </mxCell>
        <mxCell id="b1p56JkDS0H2IpYGcqzU-29" value="" style="endArrow=classic;html=1;rounded=0;" edge="1" parent="1">
          <mxGeometry width="50" height="50" relative="1" as="geometry">
            <mxPoint x="520" y="180" as="sourcePoint" />
            <mxPoint x="640" y="180" as="targetPoint" />
          </mxGeometry>
        </mxCell>
        <mxCell id="b1p56JkDS0H2IpYGcqzU-30" value="" style="endArrow=classic;html=1;rounded=0;" edge="1" parent="1">
          <mxGeometry width="50" height="50" relative="1" as="geometry">
            <mxPoint x="520" y="540" as="sourcePoint" />
            <mxPoint x="640" y="540" as="targetPoint" />
          </mxGeometry>
        </mxCell>
        <mxCell id="b1p56JkDS0H2IpYGcqzU-31" value="" style="endArrow=classic;html=1;rounded=0;" edge="1" parent="1">
          <mxGeometry width="50" height="50" relative="1" as="geometry">
            <mxPoint x="640" y="720" as="sourcePoint" />
            <mxPoint x="520" y="720" as="targetPoint" />
          </mxGeometry>
        </mxCell>
        <mxCell id="b1p56JkDS0H2IpYGcqzU-73" style="edgeStyle=orthogonalEdgeStyle;rounded=0;orthogonalLoop=1;jettySize=auto;html=1;exitX=0.78;exitY=0.5;exitDx=0;exitDy=0;exitPerimeter=0;entryX=0.5;entryY=0;entryDx=0;entryDy=0;endArrow=none;endFill=0;" edge="1" parent="1" source="b1p56JkDS0H2IpYGcqzU-37" target="b1p56JkDS0H2IpYGcqzU-38">
          <mxGeometry relative="1" as="geometry" />
        </mxCell>
        <mxCell id="b1p56JkDS0H2IpYGcqzU-37" value="IsA" style="strokeWidth=2;html=1;shape=mxgraph.flowchart.extract_or_measurement;whiteSpace=wrap;" vertex="1" parent="1">
          <mxGeometry x="670" y="570" width="95" height="60" as="geometry" />
        </mxCell>
        <mxCell id="b1p56JkDS0H2IpYGcqzU-38" value="Room" style="rounded=1;arcSize=10;whiteSpace=wrap;html=1;align=center;" vertex="1" parent="1">
          <mxGeometry x="827" y="660" width="100" height="40" as="geometry" />
        </mxCell>
        <mxCell id="b1p56JkDS0H2IpYGcqzU-61" style="edgeStyle=orthogonalEdgeStyle;rounded=0;orthogonalLoop=1;jettySize=auto;html=1;exitX=0.78;exitY=0.5;exitDx=0;exitDy=0;exitPerimeter=0;entryX=0.5;entryY=0;entryDx=0;entryDy=0;endArrow=none;endFill=0;" edge="1" parent="1" source="b1p56JkDS0H2IpYGcqzU-41" target="b1p56JkDS0H2IpYGcqzU-51">
          <mxGeometry relative="1" as="geometry" />
        </mxCell>
        <mxCell id="b1p56JkDS0H2IpYGcqzU-41" value="IsA" style="strokeWidth=2;html=1;shape=mxgraph.flowchart.extract_or_measurement;whiteSpace=wrap;" vertex="1" parent="1">
          <mxGeometry x="670" y="390" width="95" height="60" as="geometry" />
        </mxCell>
        <mxCell id="b1p56JkDS0H2IpYGcqzU-43" style="edgeStyle=orthogonalEdgeStyle;rounded=0;orthogonalLoop=1;jettySize=auto;html=1;exitX=1;exitY=0.5;exitDx=0;exitDy=0;entryX=0.22;entryY=0.5;entryDx=0;entryDy=0;entryPerimeter=0;endArrow=none;endFill=0;" edge="1" parent="1" source="b1p56JkDS0H2IpYGcqzU-18" target="b1p56JkDS0H2IpYGcqzU-41">
          <mxGeometry relative="1" as="geometry" />
        </mxCell>
        <mxCell id="b1p56JkDS0H2IpYGcqzU-64" style="edgeStyle=orthogonalEdgeStyle;rounded=0;orthogonalLoop=1;jettySize=auto;html=1;exitX=0.78;exitY=0.5;exitDx=0;exitDy=0;exitPerimeter=0;entryX=0.5;entryY=0;entryDx=0;entryDy=0;endArrow=none;endFill=0;" edge="1" parent="1" source="b1p56JkDS0H2IpYGcqzU-45" target="b1p56JkDS0H2IpYGcqzU-46">
          <mxGeometry relative="1" as="geometry" />
        </mxCell>
        <mxCell id="b1p56JkDS0H2IpYGcqzU-65" style="edgeStyle=orthogonalEdgeStyle;rounded=0;orthogonalLoop=1;jettySize=auto;html=1;exitX=0.78;exitY=0.5;exitDx=0;exitDy=0;exitPerimeter=0;entryX=0.5;entryY=0;entryDx=0;entryDy=0;endArrow=none;endFill=0;" edge="1" parent="1" source="b1p56JkDS0H2IpYGcqzU-45" target="b1p56JkDS0H2IpYGcqzU-48">
          <mxGeometry relative="1" as="geometry">
            <Array as="points">
              <mxPoint x="800" y="50" />
              <mxPoint x="800" y="200" />
              <mxPoint x="877" y="200" />
            </Array>
          </mxGeometry>
        </mxCell>
        <mxCell id="b1p56JkDS0H2IpYGcqzU-45" value="IsA" style="strokeWidth=2;html=1;shape=mxgraph.flowchart.extract_or_measurement;whiteSpace=wrap;" vertex="1" parent="1">
          <mxGeometry x="680" y="20" width="95" height="60" as="geometry" />
        </mxCell>
        <mxCell id="b1p56JkDS0H2IpYGcqzU-79" style="edgeStyle=orthogonalEdgeStyle;rounded=0;orthogonalLoop=1;jettySize=auto;html=1;exitX=1;exitY=0.5;exitDx=0;exitDy=0;entryX=0;entryY=0.5;entryDx=0;entryDy=0;endArrow=none;endFill=0;" edge="1" parent="1" source="b1p56JkDS0H2IpYGcqzU-46" target="b1p56JkDS0H2IpYGcqzU-78">
          <mxGeometry relative="1" as="geometry">
            <Array as="points">
              <mxPoint x="927" y="150" />
            </Array>
          </mxGeometry>
        </mxCell>
        <mxCell id="b1p56JkDS0H2IpYGcqzU-94" value="1" style="edgeLabel;html=1;align=center;verticalAlign=middle;resizable=0;points=[];" vertex="1" connectable="0" parent="b1p56JkDS0H2IpYGcqzU-79">
          <mxGeometry x="-0.3042" y="-1" relative="1" as="geometry">
            <mxPoint x="-6" y="-1" as="offset" />
          </mxGeometry>
        </mxCell>
        <mxCell id="b1p56JkDS0H2IpYGcqzU-46" value="Guest" style="rounded=1;arcSize=10;whiteSpace=wrap;html=1;align=center;" vertex="1" parent="1">
          <mxGeometry x="827" y="120" width="100" height="40" as="geometry" />
        </mxCell>
        <mxCell id="b1p56JkDS0H2IpYGcqzU-47" style="edgeStyle=orthogonalEdgeStyle;rounded=0;orthogonalLoop=1;jettySize=auto;html=1;exitX=1;exitY=0.5;exitDx=0;exitDy=0;entryX=0.22;entryY=0.5;entryDx=0;entryDy=0;entryPerimeter=0;endArrow=none;endFill=0;" edge="1" parent="1" source="b1p56JkDS0H2IpYGcqzU-16" target="b1p56JkDS0H2IpYGcqzU-45">
          <mxGeometry relative="1" as="geometry" />
        </mxCell>
        <mxCell id="b1p56JkDS0H2IpYGcqzU-75" style="edgeStyle=orthogonalEdgeStyle;rounded=0;orthogonalLoop=1;jettySize=auto;html=1;exitX=1;exitY=0.5;exitDx=0;exitDy=0;entryX=0;entryY=0.5;entryDx=0;entryDy=0;endArrow=none;endFill=0;" edge="1" parent="1" source="b1p56JkDS0H2IpYGcqzU-48" target="b1p56JkDS0H2IpYGcqzU-74">
          <mxGeometry relative="1" as="geometry">
            <Array as="points">
              <mxPoint x="927" y="230" />
            </Array>
          </mxGeometry>
        </mxCell>
        <mxCell id="b1p56JkDS0H2IpYGcqzU-98" value="1..N" style="edgeLabel;html=1;align=center;verticalAlign=middle;resizable=0;points=[];" vertex="1" connectable="0" parent="b1p56JkDS0H2IpYGcqzU-75">
          <mxGeometry x="-0.3894" y="2" relative="1" as="geometry">
            <mxPoint x="-2" y="2" as="offset" />
          </mxGeometry>
        </mxCell>
        <mxCell id="b1p56JkDS0H2IpYGcqzU-48" value="Cook" style="rounded=1;arcSize=10;whiteSpace=wrap;html=1;align=center;" vertex="1" parent="1">
          <mxGeometry x="827" y="220" width="100" height="40" as="geometry" />
        </mxCell>
        <mxCell id="b1p56JkDS0H2IpYGcqzU-58" style="edgeStyle=orthogonalEdgeStyle;rounded=0;orthogonalLoop=1;jettySize=auto;html=1;exitX=1;exitY=0.5;exitDx=0;exitDy=0;entryX=1;entryY=0.5;entryDx=0;entryDy=0;endArrow=none;endFill=0;" edge="1" parent="1" source="b1p56JkDS0H2IpYGcqzU-51" target="b1p56JkDS0H2IpYGcqzU-78">
          <mxGeometry relative="1" as="geometry">
            <mxPoint x="1140" y="500" as="targetPoint" />
            <Array as="points">
              <mxPoint x="1520" y="500" />
              <mxPoint x="1520" y="150" />
            </Array>
          </mxGeometry>
        </mxCell>
        <mxCell id="b1p56JkDS0H2IpYGcqzU-103" value="1..N" style="edgeLabel;html=1;align=center;verticalAlign=middle;resizable=0;points=[];" vertex="1" connectable="0" parent="b1p56JkDS0H2IpYGcqzU-58">
          <mxGeometry x="-0.8959" y="1" relative="1" as="geometry">
            <mxPoint x="2" y="1" as="offset" />
          </mxGeometry>
        </mxCell>
        <mxCell id="5FKAJ25ehxszMhtfPD45-11" value="1" style="edgeLabel;html=1;align=center;verticalAlign=middle;resizable=0;points=[];" connectable="0" vertex="1" parent="b1p56JkDS0H2IpYGcqzU-58">
          <mxGeometry x="0.9704" y="2" relative="1" as="geometry">
            <mxPoint as="offset" />
          </mxGeometry>
        </mxCell>
        <mxCell id="b1p56JkDS0H2IpYGcqzU-84" style="edgeStyle=orthogonalEdgeStyle;rounded=0;orthogonalLoop=1;jettySize=auto;html=1;exitX=0.75;exitY=1;exitDx=0;exitDy=0;entryX=0.5;entryY=0;entryDx=0;entryDy=0;endArrow=none;endFill=0;" edge="1" parent="1" source="b1p56JkDS0H2IpYGcqzU-51" target="b1p56JkDS0H2IpYGcqzU-83">
          <mxGeometry relative="1" as="geometry">
            <Array as="points">
              <mxPoint x="902" y="580" />
              <mxPoint x="1200" y="580" />
            </Array>
          </mxGeometry>
        </mxCell>
        <mxCell id="b1p56JkDS0H2IpYGcqzU-104" value="1..N" style="edgeLabel;html=1;align=center;verticalAlign=middle;resizable=0;points=[];" vertex="1" connectable="0" parent="b1p56JkDS0H2IpYGcqzU-84">
          <mxGeometry x="-0.9435" relative="1" as="geometry">
            <mxPoint as="offset" />
          </mxGeometry>
        </mxCell>
        <mxCell id="b1p56JkDS0H2IpYGcqzU-51" value="FoodRersevation" style="rounded=1;arcSize=10;whiteSpace=wrap;html=1;align=center;" vertex="1" parent="1">
          <mxGeometry x="827" y="480" width="100" height="40" as="geometry" />
        </mxCell>
        <mxCell id="b1p56JkDS0H2IpYGcqzU-69" style="edgeStyle=orthogonalEdgeStyle;rounded=0;orthogonalLoop=1;jettySize=auto;html=1;exitX=1;exitY=0.5;exitDx=0;exitDy=0;entryX=0;entryY=0.5;entryDx=0;entryDy=0;endArrow=none;endFill=0;" edge="1" parent="1" source="b1p56JkDS0H2IpYGcqzU-67" target="b1p56JkDS0H2IpYGcqzU-48">
          <mxGeometry relative="1" as="geometry" />
        </mxCell>
        <mxCell id="b1p56JkDS0H2IpYGcqzU-67" value="WorkIn" style="shape=rhombus;perimeter=rhombusPerimeter;whiteSpace=wrap;html=1;align=center;" vertex="1" parent="1">
          <mxGeometry x="520" y="210" width="120" height="60" as="geometry" />
        </mxCell>
        <mxCell id="b1p56JkDS0H2IpYGcqzU-68" value="" style="endArrow=classic;html=1;rounded=0;" edge="1" parent="1">
          <mxGeometry width="50" height="50" relative="1" as="geometry">
            <mxPoint x="640" y="280" as="sourcePoint" />
            <mxPoint x="520" y="280" as="targetPoint" />
          </mxGeometry>
        </mxCell>
        <mxCell id="5FKAJ25ehxszMhtfPD45-13" style="edgeStyle=orthogonalEdgeStyle;rounded=0;orthogonalLoop=1;jettySize=auto;html=1;exitX=1;exitY=0.5;exitDx=0;exitDy=0;entryX=1;entryY=0.25;entryDx=0;entryDy=0;endArrow=none;endFill=0;" edge="1" parent="1" source="b1p56JkDS0H2IpYGcqzU-74" target="b1p56JkDS0H2IpYGcqzU-51">
          <mxGeometry relative="1" as="geometry">
            <Array as="points">
              <mxPoint x="1510" y="230" />
              <mxPoint x="1510" y="490" />
            </Array>
          </mxGeometry>
        </mxCell>
        <mxCell id="5FKAJ25ehxszMhtfPD45-14" value="1..N" style="edgeLabel;html=1;align=center;verticalAlign=middle;resizable=0;points=[];" connectable="0" vertex="1" parent="5FKAJ25ehxszMhtfPD45-13">
          <mxGeometry x="0.8209" relative="1" as="geometry">
            <mxPoint as="offset" />
          </mxGeometry>
        </mxCell>
        <mxCell id="b1p56JkDS0H2IpYGcqzU-74" value="Prepare" style="shape=rhombus;perimeter=rhombusPerimeter;whiteSpace=wrap;html=1;align=center;" vertex="1" parent="1">
          <mxGeometry x="1000" y="200" width="120" height="60" as="geometry" />
        </mxCell>
        <mxCell id="b1p56JkDS0H2IpYGcqzU-78" value="contains" style="shape=rhombus;perimeter=rhombusPerimeter;whiteSpace=wrap;html=1;align=center;" vertex="1" parent="1">
          <mxGeometry x="1000" y="120" width="120" height="60" as="geometry" />
        </mxCell>
        <mxCell id="b1p56JkDS0H2IpYGcqzU-82" value="" style="endArrow=classic;html=1;rounded=0;" edge="1" parent="1">
          <mxGeometry width="50" height="50" relative="1" as="geometry">
            <mxPoint x="1000" y="190" as="sourcePoint" />
            <mxPoint x="1120" y="190" as="targetPoint" />
          </mxGeometry>
        </mxCell>
        <mxCell id="b1p56JkDS0H2IpYGcqzU-85" style="edgeStyle=orthogonalEdgeStyle;rounded=0;orthogonalLoop=1;jettySize=auto;html=1;exitX=0;exitY=0.5;exitDx=0;exitDy=0;entryX=1;entryY=0.5;entryDx=0;entryDy=0;endArrow=none;endFill=0;" edge="1" parent="1" source="b1p56JkDS0H2IpYGcqzU-83" target="b1p56JkDS0H2IpYGcqzU-38">
          <mxGeometry relative="1" as="geometry" />
        </mxCell>
        <mxCell id="b1p56JkDS0H2IpYGcqzU-105" value="1..N" style="edgeLabel;html=1;align=center;verticalAlign=middle;resizable=0;points=[];" vertex="1" connectable="0" parent="b1p56JkDS0H2IpYGcqzU-85">
          <mxGeometry x="0.9013" y="1" relative="1" as="geometry">
            <mxPoint as="offset" />
          </mxGeometry>
        </mxCell>
        <mxCell id="b1p56JkDS0H2IpYGcqzU-83" value="Contains" style="shape=rhombus;perimeter=rhombusPerimeter;whiteSpace=wrap;html=1;align=center;" vertex="1" parent="1">
          <mxGeometry x="1140" y="650" width="120" height="60" as="geometry" />
        </mxCell>
        <mxCell id="b1p56JkDS0H2IpYGcqzU-86" value="" style="endArrow=classic;html=1;rounded=0;" edge="1" parent="1">
          <mxGeometry width="50" height="50" relative="1" as="geometry">
            <mxPoint x="1260" y="720" as="sourcePoint" />
            <mxPoint x="1140" y="720" as="targetPoint" />
          </mxGeometry>
        </mxCell>
        <mxCell id="5FKAJ25ehxszMhtfPD45-17" style="edgeStyle=orthogonalEdgeStyle;rounded=0;orthogonalLoop=1;jettySize=auto;html=1;exitX=1;exitY=0.5;exitDx=0;exitDy=0;entryX=0;entryY=0.5;entryDx=0;entryDy=0;endArrow=none;endFill=0;" edge="1" parent="1" source="5FKAJ25ehxszMhtfPD45-1" target="5FKAJ25ehxszMhtfPD45-15">
          <mxGeometry relative="1" as="geometry" />
        </mxCell>
        <mxCell id="5FKAJ25ehxszMhtfPD45-18" value="1..N" style="edgeLabel;html=1;align=center;verticalAlign=middle;resizable=0;points=[];" connectable="0" vertex="1" parent="5FKAJ25ehxszMhtfPD45-17">
          <mxGeometry x="-0.611" y="-4" relative="1" as="geometry">
            <mxPoint as="offset" />
          </mxGeometry>
        </mxCell>
        <mxCell id="5FKAJ25ehxszMhtfPD45-1" value="FoodDeliver" style="rounded=1;arcSize=10;whiteSpace=wrap;html=1;align=center;" vertex="1" parent="1">
          <mxGeometry x="827" y="300" width="100" height="40" as="geometry" />
        </mxCell>
        <mxCell id="5FKAJ25ehxszMhtfPD45-2" style="edgeStyle=orthogonalEdgeStyle;rounded=0;orthogonalLoop=1;jettySize=auto;html=1;exitX=0.5;exitY=0;exitDx=0;exitDy=0;entryX=0.78;entryY=0.5;entryDx=0;entryDy=0;entryPerimeter=0;endArrow=none;endFill=0;" edge="1" parent="1" source="5FKAJ25ehxszMhtfPD45-1" target="b1p56JkDS0H2IpYGcqzU-45">
          <mxGeometry relative="1" as="geometry">
            <Array as="points">
              <mxPoint x="877" y="280" />
              <mxPoint x="800" y="280" />
              <mxPoint x="800" y="50" />
            </Array>
          </mxGeometry>
        </mxCell>
        <mxCell id="5FKAJ25ehxszMhtfPD45-7" style="edgeStyle=orthogonalEdgeStyle;rounded=0;orthogonalLoop=1;jettySize=auto;html=1;exitX=0;exitY=0.5;exitDx=0;exitDy=0;entryX=1;entryY=0.5;entryDx=0;entryDy=0;endArrow=none;endFill=0;" edge="1" parent="1" source="5FKAJ25ehxszMhtfPD45-3" target="5FKAJ25ehxszMhtfPD45-5">
          <mxGeometry relative="1" as="geometry" />
        </mxCell>
        <mxCell id="5FKAJ25ehxszMhtfPD45-10" value="1..N" style="edgeLabel;html=1;align=center;verticalAlign=middle;resizable=0;points=[];" connectable="0" vertex="1" parent="5FKAJ25ehxszMhtfPD45-7">
          <mxGeometry x="-0.5503" y="-1" relative="1" as="geometry">
            <mxPoint as="offset" />
          </mxGeometry>
        </mxCell>
        <mxCell id="5FKAJ25ehxszMhtfPD45-24" style="edgeStyle=orthogonalEdgeStyle;rounded=0;orthogonalLoop=1;jettySize=auto;html=1;exitX=1;exitY=0.5;exitDx=0;exitDy=0;entryX=0;entryY=0.5;entryDx=0;entryDy=0;endArrow=none;endFill=0;" edge="1" parent="1" source="5FKAJ25ehxszMhtfPD45-3" target="5FKAJ25ehxszMhtfPD45-22">
          <mxGeometry relative="1" as="geometry" />
        </mxCell>
        <mxCell id="5FKAJ25ehxszMhtfPD45-3" value="Restarant" style="rounded=1;arcSize=10;whiteSpace=wrap;html=1;align=center;" vertex="1" parent="1">
          <mxGeometry x="827" y="760" width="100" height="40" as="geometry" />
        </mxCell>
        <mxCell id="5FKAJ25ehxszMhtfPD45-4" style="edgeStyle=orthogonalEdgeStyle;rounded=0;orthogonalLoop=1;jettySize=auto;html=1;exitX=0.5;exitY=0;exitDx=0;exitDy=0;entryX=0.78;entryY=0.5;entryDx=0;entryDy=0;entryPerimeter=0;endArrow=none;endFill=0;" edge="1" parent="1" source="5FKAJ25ehxszMhtfPD45-3" target="b1p56JkDS0H2IpYGcqzU-37">
          <mxGeometry relative="1" as="geometry">
            <Array as="points">
              <mxPoint x="877" y="720" />
              <mxPoint x="800" y="720" />
              <mxPoint x="800" y="600" />
            </Array>
          </mxGeometry>
        </mxCell>
        <mxCell id="5FKAJ25ehxszMhtfPD45-8" style="edgeStyle=orthogonalEdgeStyle;rounded=0;orthogonalLoop=1;jettySize=auto;html=1;exitX=0;exitY=0.5;exitDx=0;exitDy=0;entryX=0.5;entryY=1;entryDx=0;entryDy=0;endArrow=none;endFill=0;" edge="1" parent="1" source="5FKAJ25ehxszMhtfPD45-5" target="b1p56JkDS0H2IpYGcqzU-5">
          <mxGeometry relative="1" as="geometry" />
        </mxCell>
        <mxCell id="5FKAJ25ehxszMhtfPD45-9" value="1..N" style="edgeLabel;html=1;align=center;verticalAlign=middle;resizable=0;points=[];" connectable="0" vertex="1" parent="5FKAJ25ehxszMhtfPD45-8">
          <mxGeometry x="0.704" y="-1" relative="1" as="geometry">
            <mxPoint as="offset" />
          </mxGeometry>
        </mxCell>
        <mxCell id="5FKAJ25ehxszMhtfPD45-5" value="Composits" style="shape=rhombus;perimeter=rhombusPerimeter;whiteSpace=wrap;html=1;align=center;" vertex="1" parent="1">
          <mxGeometry x="530" y="750" width="120" height="60" as="geometry" />
        </mxCell>
        <mxCell id="5FKAJ25ehxszMhtfPD45-6" value="" style="endArrow=classic;html=1;rounded=0;" edge="1" parent="1">
          <mxGeometry width="50" height="50" relative="1" as="geometry">
            <mxPoint x="650" y="820" as="sourcePoint" />
            <mxPoint x="530" y="820" as="targetPoint" />
          </mxGeometry>
        </mxCell>
        <mxCell id="5FKAJ25ehxszMhtfPD45-12" value="" style="endArrow=classic;html=1;rounded=0;" edge="1" parent="1">
          <mxGeometry width="50" height="50" relative="1" as="geometry">
            <mxPoint x="1000" y="270" as="sourcePoint" />
            <mxPoint x="1120" y="270" as="targetPoint" />
          </mxGeometry>
        </mxCell>
        <mxCell id="5FKAJ25ehxszMhtfPD45-19" style="edgeStyle=orthogonalEdgeStyle;rounded=0;orthogonalLoop=1;jettySize=auto;html=1;exitX=1;exitY=0.5;exitDx=0;exitDy=0;entryX=0.75;entryY=0;entryDx=0;entryDy=0;endArrow=none;endFill=0;" edge="1" parent="1" source="5FKAJ25ehxszMhtfPD45-15" target="b1p56JkDS0H2IpYGcqzU-51">
          <mxGeometry relative="1" as="geometry">
            <Array as="points">
              <mxPoint x="1500" y="320" />
              <mxPoint x="1500" y="420" />
              <mxPoint x="902" y="420" />
            </Array>
          </mxGeometry>
        </mxCell>
        <mxCell id="5FKAJ25ehxszMhtfPD45-20" value="1..N" style="edgeLabel;html=1;align=center;verticalAlign=middle;resizable=0;points=[];" connectable="0" vertex="1" parent="5FKAJ25ehxszMhtfPD45-19">
          <mxGeometry x="-0.9329" relative="1" as="geometry">
            <mxPoint as="offset" />
          </mxGeometry>
        </mxCell>
        <mxCell id="5FKAJ25ehxszMhtfPD45-21" value="1..N" style="edgeLabel;html=1;align=center;verticalAlign=middle;resizable=0;points=[];" connectable="0" vertex="1" parent="5FKAJ25ehxszMhtfPD45-19">
          <mxGeometry x="0.845" y="3" relative="1" as="geometry">
            <mxPoint as="offset" />
          </mxGeometry>
        </mxCell>
        <mxCell id="5FKAJ25ehxszMhtfPD45-15" value="Deliver" style="shape=rhombus;perimeter=rhombusPerimeter;whiteSpace=wrap;html=1;align=center;" vertex="1" parent="1">
          <mxGeometry x="1000" y="290" width="120" height="60" as="geometry" />
        </mxCell>
        <mxCell id="5FKAJ25ehxszMhtfPD45-16" value="" style="endArrow=classic;html=1;rounded=0;" edge="1" parent="1">
          <mxGeometry width="50" height="50" relative="1" as="geometry">
            <mxPoint x="1000" y="360" as="sourcePoint" />
            <mxPoint x="1120" y="360" as="targetPoint" />
          </mxGeometry>
        </mxCell>
        <mxCell id="5FKAJ25ehxszMhtfPD45-25" style="edgeStyle=orthogonalEdgeStyle;rounded=0;orthogonalLoop=1;jettySize=auto;html=1;exitX=1;exitY=0.5;exitDx=0;exitDy=0;entryX=1;entryY=0.75;entryDx=0;entryDy=0;endArrow=none;endFill=0;" edge="1" parent="1" source="5FKAJ25ehxszMhtfPD45-22" target="b1p56JkDS0H2IpYGcqzU-51">
          <mxGeometry relative="1" as="geometry" />
        </mxCell>
        <mxCell id="5FKAJ25ehxszMhtfPD45-26" value="1..N" style="edgeLabel;html=1;align=center;verticalAlign=middle;resizable=0;points=[];" connectable="0" vertex="1" parent="5FKAJ25ehxszMhtfPD45-25">
          <mxGeometry x="0.819" relative="1" as="geometry">
            <mxPoint as="offset" />
          </mxGeometry>
        </mxCell>
        <mxCell id="5FKAJ25ehxszMhtfPD45-22" value="Prepare" style="shape=rhombus;perimeter=rhombusPerimeter;whiteSpace=wrap;html=1;align=center;" vertex="1" parent="1">
          <mxGeometry x="1140" y="750" width="120" height="60" as="geometry" />
        </mxCell>
        <mxCell id="5FKAJ25ehxszMhtfPD45-23" value="" style="endArrow=classic;html=1;rounded=0;" edge="1" parent="1">
          <mxGeometry width="50" height="50" relative="1" as="geometry">
            <mxPoint x="1140" y="820" as="sourcePoint" />
            <mxPoint x="1260" y="820" as="targetPoint" />
          </mxGeometry>
        </mxCell>
      </root>
    </mxGraphModel>
  </diagram>
</mxfile>
